<?xml version="1.0" encoding="utf-8"?>
<!-- Generator: Adobe Illustrator 24.0.1, SVG Export Plug-In . SVG Version: 6.00 Build 0)  -->
<svg version="1.1" xmlns="http://www.w3.org/2000/svg" xmlns:xlink="http://www.w3.org/1999/xlink" x="0px" y="0px"
	 viewBox="0 0 560 288" style="enable-background:new 0 0 560 288;" xml:space="preserve">
<style type="text/css">
	.st0{fill:#FFFFFF;}
	.st1{font-family:'MyriadPro-Regular';}
	.st2{font-size:36px;}
	.st3{font-size:12px;}
	.st4{fill:#5B00FF;}
	.st5{font-size:14px;}
	.st6{fill:#F4870F;}
	.st7{fill:#F4EEA6;}
	.st8{fill:none;stroke:#FF0000;stroke-width:2;stroke-miterlimit:10;}
	.st9{fill:#FF0000;}
</style>
<g id="Layer_3">
	<rect class="st0" width="560" height="288"/>
</g>
<g id="texts">
	<text transform="matrix(1 0 0 1 36.6521 69.6956)" class="st1 st2">Gotham</text>
	<text transform="matrix(1 0 0 1 329.3477 197.0009)" class="st1 st2">Metropolis</text>
	<text transform="matrix(1 0 0 1 13.6953 97.3478)"><tspan x="0" y="0" class="st1 st3">busy at night on weekdays</tspan><tspan x="0" y="14.4" class="st1 st3">reasonable weekend activity</tspan></text>
	<text transform="matrix(1 0 0 1 312.1304 222.043)"><tspan x="0" y="0" class="st1 st3">busy during day on weekdays</tspan><tspan x="0" y="14.4" class="st1 st3">reasonable weekend activity</tspan></text>
	<text transform="matrix(1 0 0 1 240.6467 30.5652)"><tspan x="0" y="0" class="st4 st1 st5">Two-way toll bridge separates neighboring cities</tspan><tspan x="0" y="16.8" class="st4 st1 st5">with complementary usage patterns and discourages</tspan><tspan x="0" y="33.6" class="st4 st1 st5">commuting between the cities.</tspan><tspan x="0" y="50.4" class="st4 st1 st5"> </tspan><tspan x="0" y="67.2" class="st4 st1 st5">Will reimbursing toll costs encourage driving </tspan><tspan x="0" y="84" class="st4 st1 st5">between cities? How can success be measured?</tspan></text>
	<circle class="st6" cx="519.3" cy="246.3" r="18"/>
	<circle class="st7" cx="22.3" cy="25.6" r="18"/>
	<circle class="st0" cx="34.7" cy="25.6" r="18"/>
	<circle class="st0" cx="501.3" cy="264.3" r="18"/>
	<circle class="st0" cx="528.8" cy="264.3" r="18"/>
</g>
<g id="drawings">
	<g>
		<g>
			<line class="st8" x1="179" y1="85.9" x2="323.6" y2="172"/>
			<g>
				<path class="st9" d="M182.1,87.7l7.5-3.9l-0.1-0.3l-12.5-2c-4-1.3-8-2.6-11.9-4c3.1,2.9,6.1,5.7,9.2,8.6l7.7,10l0.3,0
					L182.1,87.7z"/>
			</g>
		</g>
	</g>
	<g>
		<g>
			<line class="st8" x1="305.9" y1="182.9" x2="161.3" y2="96.8"/>
			<g>
				<path class="st9" d="M302.9,181l-7.5,3.9l0.1,0.3l12.5,2c4,1.3,8,2.6,11.9,4c-3.1-2.9-6.1-5.7-9.2-8.6l-7.7-10l-0.3,0L302.9,181
					z"/>
			</g>
		</g>
	</g>
</g>
</svg>
